<?xml version="1.0" standalone="no"?>
<svg version="1.0" xmlns="http://www.w3.org/2000/svg"
 width="800.000000pt" height="800.000000pt" viewBox="0 0 800.000000 800.000000"
 preserveAspectRatio="xMidYMid meet">

<g transform="translate(0.000000,800.000000) scale(0.100000,-0.100000)"
fill="#000000" stroke="none">
<path d="M3775 7494 c-897 -72 -1661 -424 -2271 -1046 -152 -155 -241 -260
-352 -415 -343 -479 -550 -1018 -628 -1628 -25 -195 -25 -615 0 -810 105 -824
449 -1523 1028 -2091 155 -152 260 -241 415 -352 479 -343 1018 -551 1628
-628 173 -22 603 -25 770 -6 624 74 1180 285 1668 634 155 111 260 200 415
352 579 568 923 1267 1028 2091 25 195 25 615 0 810 -69 540 -228 993 -508
1446 -232 377 -568 734 -935 997 -485 347 -1043 560 -1658 632 -93 11 -513 21
-600 14z m1997 -1536 c91 -45 147 -103 191 -196 l32 -67 0 -1696 0 -1695 -37
-76 c-45 -91 -103 -147 -196 -191 l-67 -32 -1695 0 -1695 0 -67 32 c-93 44
-151 100 -196 191 l-37 76 0 1695 0 1696 31 66 c53 112 129 180 249 221 47 16
156 17 1731 15 l1680 -2 76 -37z"/>
<path d="M2894 5282 c-158 -56 -235 -233 -173 -398 73 -195 337 -246 489 -94
61 61 85 119 85 210 0 55 -6 87 -22 121 -27 60 -93 125 -151 152 -65 28 -164
32 -228 9z"/>
<path d="M2700 3600 l0 -900 300 0 300 0 0 900 0 900 -300 0 -300 0 0 -900z"/>
<path d="M3500 3600 l0 -900 300 0 299 0 3 578 c3 645 -1 604 76 685 95 98
318 105 421 12 46 -42 95 -132 110 -203 7 -35 11 -228 11 -562 l0 -510 291 0
290 0 -4 598 c-3 575 -4 600 -25 680 -29 110 -56 173 -109 254 -55 83 -122
144 -210 191 -88 46 -165 66 -283 73 -193 13 -345 -40 -469 -163 -37 -38 -75
-79 -84 -93 -15 -24 -16 -18 -16 118 l-1 142 -300 0 -300 0 0 -900z"/>
</g>
</svg>
