<svg width="43" height="32" viewBox="0 0 43 32" fill="none" xmlns="http://www.w3.org/2000/svg">
<g clip-path="url(#clip0_2_129)">
<path d="M4.96282 30.1516C2.76903 30.1078 1.67214 28.4114 1.67214 25.0622V20.1371C1.67214 17.9262 1.11476 16.766 0 16.6566V14.7522C1.11476 14.6427 1.67214 13.4607 1.67214 11.2061V6.41222C1.67214 3.01932 2.76903 1.30098 4.96282 1.2572V3.35861C3.82662 3.40239 3.25853 4.48593 3.25853 6.60923V11.4195C3.25853 13.7179 2.72258 15.1298 1.6507 15.6551V15.7208C2.72258 16.2133 3.25853 17.6143 3.25853 19.9236V24.6682C3.25853 25.8831 3.38358 26.7477 3.63369 27.2621C3.89094 27.7875 4.33398 28.0611 4.96282 28.083V30.1516Z" fill="#96D991"/>
<path d="M43 16.5608C41.963 16.6702 41.4445 17.8304 41.4445 20.0412V24.9664C41.4445 28.3155 40.4274 30.012 38.3933 30.0557V27.9872C38.9716 27.9653 39.3805 27.6917 39.6198 27.1663C39.8657 26.641 39.9887 25.7763 39.9887 24.5724V19.8278C39.9887 17.5184 40.4839 16.1175 41.4744 15.625V15.5593C40.4839 15.034 39.9887 13.6221 39.9887 11.3237V6.51342C39.9887 4.39013 39.4569 3.30659 38.3933 3.26281V1.16141C40.4274 1.20519 41.4445 2.92353 41.4445 6.31642V11.1102C41.4445 13.3649 41.963 14.5469 43 14.6564V16.5608Z" fill="#96D991"/>
<path d="M6.05688 7.04504L6.0892 11.6356C6.24885 12.1432 6.72214 12.3721 7.15164 12.6096C8.98717 13.6246 14.5904 16.0062 18.3654 17.734C19.7905 18.3863 20.9496 18.6623 21.6578 18.6554C22.1943 18.6501 22.9557 18.6239 23.5322 18.3714L36.4514 12.4906C36.9632 12.2757 37.2236 12.0382 37.2038 11.6949L37.2046 7.11827C37.1375 7.31581 37.2001 7.57261 36.7094 7.87145C32.3021 9.87752 28.0673 11.855 23.5931 13.837C22.2762 14.3716 21.0656 14.27 19.7836 13.8414C15.838 12.1967 11.6886 10.3121 7.38504 8.22251C7.12611 8.09678 6.83003 7.93094 6.59823 7.75572C6.34866 7.55791 6.10735 7.29722 6.05688 7.04504Z" fill="url(#paint0_linear_2_129)"/>
<path fill-rule="evenodd" clip-rule="evenodd" d="M6.12183 20.3895L6.15414 24.98C6.31379 25.4877 6.78708 25.7166 7.21658 25.9541C9.05211 26.9691 14.6554 29.3506 18.4303 31.0784C19.8555 31.7307 21.0145 32.0068 21.7227 31.9999C22.2592 31.9946 23.0207 31.9684 23.5972 31.7159L36.5163 25.8351C37.0281 25.6202 37.2885 25.3826 37.2687 25.0394L37.2802 20.4742C37.2183 20.7215 37.2704 20.9687 36.7743 21.2159C32.3671 23.222 28.1323 25.1995 23.6581 27.1814C22.3411 27.7161 21.1306 27.6145 19.8485 27.1858C15.9029 25.5412 11.7536 23.6566 7.44998 21.567C7.19105 21.4413 6.89497 21.2754 6.66317 21.1002C6.4136 20.9024 6.17229 20.6417 6.12183 20.3895Z" fill="url(#paint1_linear_2_129)"/>
<path fill-rule="evenodd" clip-rule="evenodd" d="M5.99207 13.5768L6.02438 18.1674C6.18403 18.675 6.65732 18.9039 7.08682 19.1414C8.92235 20.1564 14.5256 22.538 18.3005 24.2658C19.7257 24.9181 20.8848 25.1941 21.593 25.1872C22.1295 25.1819 22.8909 25.1557 23.4674 24.9032L36.3865 19.0224C36.8984 18.8075 37.1588 18.57 37.1389 18.2267L37.1504 13.6615C37.0886 13.9088 37.1406 14.156 36.6446 14.4033C32.2373 16.4093 28.0025 18.3868 23.5283 20.3688C22.2114 20.9034 21.0008 20.8018 19.7188 20.3732C15.7731 18.7285 11.6238 16.8439 7.32022 14.7543C7.06129 14.6286 6.76521 14.4627 6.53341 14.2875C6.28384 14.0897 6.04253 13.829 5.99207 13.5768Z" fill="url(#paint2_linear_2_129)"/>
<path d="M6.68883 6.24881L19.7025 0.373973C20.2705 0.0484042 20.9991 -0.00261162 21.5671 9.92938e-05C22.2984 0.0519966 23.104 0.248999 23.6522 0.433039C28.7364 2.57942 31.933 4.18417 36.2226 6.11561C36.6679 6.31404 37.0008 6.59086 37.1651 6.95303C37.3022 7.30794 37.0326 7.72509 36.667 7.89376L33.5125 9.34638L23.7167 4.93104C22.9846 4.69163 22.4394 4.58648 21.7963 4.5075C19.9879 4.41657 19.6493 4.88555 17.6126 5.7864C15.5933 6.67954 11.6616 8.50294 9.74727 9.3626C8.83534 8.95016 8.24761 8.69725 6.61464 7.81879C5.92298 7.41094 5.83041 6.58599 6.68883 6.24881Z" fill="url(#paint3_linear_2_129)"/>
</g>
<defs>
<linearGradient id="paint0_linear_2_129" x1="6.05688" y1="12.8503" x2="37.2152" y2="12.8503" gradientUnits="userSpaceOnUse">
<stop offset="0.17" stop-color="#243446"/>
<stop offset="0.64" stop-color="#96D991"/>
</linearGradient>
<linearGradient id="paint1_linear_2_129" x1="6.12183" y1="26.1948" x2="37.2802" y2="26.1948" gradientUnits="userSpaceOnUse">
<stop offset="0.168317" stop-color="#243446"/>
<stop offset="0.636139" stop-color="#96D991"/>
</linearGradient>
<linearGradient id="paint2_linear_2_129" x1="5.99207" y1="19.3821" x2="37.1504" y2="19.3821" gradientUnits="userSpaceOnUse">
<stop offset="0.173267" stop-color="#243446"/>
<stop offset="0.64" stop-color="#96D991"/>
</linearGradient>
<linearGradient id="paint3_linear_2_129" x1="6.04373" y1="4.67443" x2="37.2431" y2="4.67443" gradientUnits="userSpaceOnUse">
<stop stop-color="#AE7839"/>
<stop offset="1" stop-color="#E8C091"/>
</linearGradient>
<clipPath id="clip0_2_129">
<rect width="43" height="32" fill="white"/>
</clipPath>
</defs>
</svg>
